<svg width="24" height="24" viewBox="0 0 24 24" fill="none" xmlns="http://www.w3.org/2000/svg">
<path d="M8 3C5.79086 3 4 4.79086 4 7C4 9.20914 5.79086 11 8 11H10V13C10 14.1046 9.10457 15 8 15C6.89543 15 6 14.1046 6 13H4C4 15.7614 6.23858 18 9 18C11.7614 18 14 15.7614 14 13V7C14 4.79086 12.2091 3 10 3H8Z" fill="white"/>
<path d="M20 3C17.7909 3 16 4.79086 16 7C16 9.20914 17.7909 11 20 11H22V13C22 14.1046 21.1046 15 20 15C18.8954 15 18 14.1046 18 13H16C16 15.7614 18.2386 18 21 18C23.7614 18 26 15.7614 26 13V7C26 4.79086 24.2091 3 22 3H20Z" fill="white"/>
</svg>
