<svg width="17" height="17" viewBox="0 0 17 17" fill="none" xmlns="http://www.w3.org/2000/svg">
<path d="M15.2999 10.1998V12.5798C15.2999 13.5319 15.2999 14.0079 15.1146 14.3715C14.9516 14.6914 14.6915 14.9515 14.3717 15.1145C14.008 15.2997 13.532 15.2997 12.5799 15.2997H10.2M6.80003 1.70001H4.42008C3.46801 1.70001 2.99197 1.70001 2.62833 1.88529C2.30846 2.04828 2.0484 2.30834 1.88542 2.62821C1.70013 2.99185 1.70013 3.46788 1.70013 4.41995V6.79991M11.0499 5.94993L16.1499 0.850025M16.1499 0.850025H11.0499M16.1499 0.850025V5.94993M5.95005 11.0498L0.850149 16.1497M0.850149 16.1497H5.95005M0.850149 16.1497L0.85015 11.0498" stroke="#F0F0F1" stroke-width="1.66667" stroke-linecap="round" stroke-linejoin="round"/>
</svg>
