<svg width="18" height="20" viewBox="0 0 18 20" fill="none" xmlns="http://www.w3.org/2000/svg">
<path d="M14.0678 7.96611V5.93222C14.0678 3.124 11.7913 0.847495 8.98306 0.847495C6.17484 0.847495 3.89833 3.124 3.89833 5.93222V7.96611M8.98306 12.5424V14.5763M5.72883 19.1525H12.2373C13.9459 19.1525 14.8002 19.1525 15.4528 18.82C16.0269 18.5275 16.4936 18.0608 16.7861 17.4867C17.1186 16.8341 17.1186 15.9798 17.1186 14.2712V12.8474C17.1186 11.1388 17.1186 10.2845 16.7861 9.63189C16.4936 9.05784 16.0269 8.59113 15.4528 8.29863C14.8002 7.96611 13.9459 7.96611 12.2373 7.96611H5.72883C4.0202 7.96611 3.16589 7.96611 2.51328 8.29863C1.93923 8.59113 1.47251 9.05784 1.18002 9.63189C0.847495 10.2845 0.847495 11.1388 0.847495 12.8474V14.2712C0.847495 15.9798 0.847495 16.8341 1.18002 17.4867C1.47251 18.0608 1.93923 18.5275 2.51328 18.82C3.16589 19.1525 4.0202 19.1525 5.72883 19.1525Z" stroke="white" stroke-width="1.66667" stroke-linecap="round" stroke-linejoin="round"/>
</svg>
