<svg width="64" height="64" viewBox="0 0 64 64" fill="none" xmlns="http://www.w3.org/2000/svg">
<path d="M16.2517 29.9436C16.0859 28.8754 15.9999 27.7811 15.9999 26.6668C15.9999 14.8848 25.614 5.3335 37.4736 5.3335C49.3332 5.3335 58.9473 14.8848 58.9473 26.6668C58.9473 29.3284 58.4567 31.876 57.5605 34.2255C57.3743 34.7135 57.2812 34.9574 57.239 35.1479C57.1971 35.3367 57.181 35.4694 57.1764 35.6627C57.1718 35.8578 57.1982 36.0726 57.2512 36.5024L58.3247 45.2229C58.4409 46.1669 58.499 46.6389 58.342 46.9821C58.2044 47.2827 57.96 47.5216 57.6563 47.6522C57.3096 47.8013 56.839 47.7323 55.898 47.5943L47.4039 46.3493C46.9604 46.2843 46.7386 46.2517 46.5367 46.2529C46.3369 46.254 46.1986 46.2688 46.0031 46.3099C45.8055 46.3514 45.553 46.446 45.048 46.6352C42.6925 47.5174 40.1398 48.0002 37.4736 48.0002C36.3585 48.0002 35.2631 47.9157 34.1938 47.7529M20.3509 58.6668C28.2573 58.6668 34.6667 52.1003 34.6667 44.0002C34.6667 35.9 28.2573 29.3335 20.3509 29.3335C12.4445 29.3335 6.03513 35.9 6.03513 44.0002C6.03513 45.6284 6.29411 47.1947 6.77217 48.6581C6.97426 49.2767 7.0753 49.586 7.10846 49.7973C7.14308 50.0179 7.14915 50.1418 7.13625 50.3647C7.1239 50.5783 7.07048 50.8196 6.96363 51.3023L5.33337 58.6668L13.3195 57.5762C13.7554 57.5166 13.9734 57.4869 14.1637 57.4882C14.3641 57.4895 14.4705 57.5004 14.667 57.5396C14.8537 57.5768 15.1311 57.6747 15.6861 57.8706C17.1483 58.3866 18.7177 58.6668 20.3509 58.6668Z" stroke="white" stroke-width="3" stroke-linecap="round" stroke-linejoin="round"/>
</svg>
