<svg width="64" height="64" viewBox="0 0 64 64" fill="none" xmlns="http://www.w3.org/2000/svg">
<g clip-path="url(#clip0_14342_5109)">
<path opacity="0.62" d="M27.035 45.0806C33.4795 45.0831 38.694 39.2916 38.6965 32.1431C38.696 24.9936 33.4835 19.2061 27.0365 19.2041C20.5965 19.2011 4.71702 24.9946 4.71652 32.1441C4.71752 39.2961 20.596 45.0836 27.0355 45.0851" fill="#FBED21"/>
<path opacity="0.62" d="M31.2639 42.7296C36.6159 42.7316 40.9479 37.9216 40.9499 31.9836C40.9489 26.0446 36.6174 21.2361 31.2649 21.2366C25.918 21.2356 12.726 26.0466 12.7295 31.9811C12.7295 37.9221 25.9205 42.7311 31.2639 42.7266" fill="#FBED21"/>
<path d="M27.8895 32.9352C27.8895 39.0262 27.141 44.7037 25.8545 49.5162C27.637 48.2257 31.0875 46.8382 39.275 44.8767C55.538 40.9797 63.379 34.4127 63.376 33.0637C63.3771 33.0215 63.3769 32.9793 63.3755 32.9372C63.3765 32.8945 63.3761 32.8518 63.3745 32.8092C63.381 31.4587 55.5385 24.8992 39.273 20.9967C31.0855 19.0352 27.6345 17.6432 25.8535 16.3562C27.1415 21.1652 27.8895 26.8472 27.8885 32.9372" fill="#D1D2D3"/>
<path d="M61.659 30.7466C58.552 28.1246 51.181 23.8527 39.2705 20.9952C31.083 19.0337 27.632 17.6417 25.851 16.3547C27.139 21.1637 27.8865 26.8461 27.886 32.9356C27.886 33.1916 27.874 33.4396 27.8755 33.6961C35.493 24.2036 50.588 27.9496 61.6585 30.7461" fill="#86A7AC"/>
<path d="M22.4745 44.1081C22.4735 47.2211 22.094 50.1236 21.4345 52.5841C22.345 51.9226 24.109 51.2126 28.2935 50.2091C36.606 48.2166 40.6154 44.8641 40.6114 44.1721C40.6119 44.1516 40.6094 44.1281 40.6104 44.1081C40.6114 44.0881 40.6124 44.0641 40.6104 44.0431C40.6129 43.3536 36.604 39.9996 28.293 38.0066C24.1085 37.0041 22.344 36.2926 21.432 35.6316C22.094 38.0906 22.4745 40.9961 22.4745 44.1081Z" fill="#DE374B"/>
<path d="M30.8046 43.9001C27.8391 44.2126 24.7396 45.2901 22.3361 47.1606C22.1721 49.1116 21.8716 50.9511 21.4351 52.5826C22.3456 51.9211 24.1096 51.2111 28.2941 50.2076C35.0621 48.5856 38.975 46.0606 40.195 44.8066C37.0616 44.5251 33.9941 43.5606 30.8046 43.9001Z" fill="#C5344D"/>
<path d="M22.53 19.9957C22.529 23.1086 22.1485 26.0111 21.4895 28.4711C22.4 27.8096 24.1635 27.0991 28.35 26.0976C36.6615 24.1041 40.669 20.7497 40.6675 20.0592C40.6678 20.0382 40.6673 20.0167 40.666 19.9947C40.665 19.9717 40.668 19.9507 40.666 19.9297C40.6695 19.2402 36.6595 15.8862 28.3485 13.8932C24.1645 12.8912 22.4 12.1797 21.4875 11.5182C22.1485 13.9782 22.5295 16.8842 22.53 19.9957Z" fill="#DE374B"/>
<path d="M27.706 18.1437C31.843 19.6017 36.2795 21.0112 40.6515 20.1162C40.6545 20.0972 40.667 20.0747 40.667 20.0747C40.668 20.0387 40.666 20.0167 40.666 19.9947C40.665 19.9717 40.668 19.9507 40.666 19.9297C40.6695 19.2402 36.6595 15.8862 28.3485 13.8932C24.1645 12.8912 22.4 12.1797 21.4875 11.5182C21.933 13.1767 22.238 15.0467 22.3975 17.0352C24.2086 17.1655 25.9941 17.5383 27.706 18.1437Z" fill="#C5344D"/>
<path d="M52.985 33.0507C53.104 34.6557 53.013 36.1607 52.7655 37.4492C53.2085 37.0772 54.09 36.6447 56.206 35.9737C60.4075 34.6412 62.3435 32.7642 62.3155 32.4102C62.3172 32.3993 62.3164 32.3882 62.313 32.3777L62.312 32.3437C62.287 31.9887 60.102 30.4137 55.751 29.6947C53.562 29.3377 52.6295 29.0362 52.1355 28.7322C52.5645 29.9702 52.87 31.4517 52.985 33.0507Z" fill="#243438"/>
</g>
<defs>
<clipPath id="clip0_14342_5109">
<rect width="45" height="45" fill="white" transform="translate(32) scale(1.00566) rotate(45)"/>
</clipPath>
</defs>
</svg>
