<svg width="21" height="21" viewBox="0 0 21 21" fill="none" xmlns="http://www.w3.org/2000/svg">
<path d="M20.2564 7.19353C21.5124 5.93748 20.9397 4.47042 20.2564 3.75699L17.2419 0.742477C15.9758 -0.513568 14.5188 0.0591885 13.8053 0.742477L12.0971 2.46075H9.4946C7.58541 2.46075 6.48009 3.46558 5.91738 4.62115L1.45591 9.08262V13.102L0.742477 13.8053C-0.513568 15.0714 0.0591885 16.5285 0.742477 17.2419L3.75699 20.2564C4.2996 20.799 4.8824 21 5.43506 21C6.1485 21 6.80164 20.6483 7.19353 20.2564L9.90658 17.5333H13.5139C15.2222 17.5333 16.0863 16.4682 16.3978 15.4231C17.5333 15.1217 18.1563 14.2575 18.4075 13.4135C19.965 13.0115 20.5478 11.5344 20.5478 10.4994V7.48493H19.9549L20.2564 7.19353ZM18.5381 10.4994C18.5381 10.9516 18.3472 11.5043 17.5333 11.5043H16.5285V12.5091C16.5285 12.9613 16.3375 13.5139 15.5236 13.5139H14.5188V14.5188C14.5188 14.971 14.3279 15.5236 13.5139 15.5236H9.08262L5.78676 18.8195C5.47526 19.1109 5.29439 18.9401 5.18385 18.8295L2.17939 15.8351C1.88799 15.5236 2.05881 15.3427 2.16934 15.2322L3.46558 13.9259V9.90658L5.47526 7.89691V9.4946C5.47526 10.7105 6.27913 12.5091 8.48977 12.5091C10.7004 12.5091 11.5043 10.7105 11.5043 9.4946H18.5381V10.4994ZM18.8295 5.76666L17.1213 7.48493H9.4946V9.4946C9.4946 9.94678 9.30368 10.4994 8.48977 10.4994C7.67585 10.4994 7.48493 9.94678 7.48493 9.4946V6.48009C7.48493 6.01787 7.65575 4.47042 9.4946 4.47042H12.9211L15.2121 2.17939C15.5236 1.88799 15.7045 2.05881 15.815 2.16934L18.8195 5.16376C19.1109 5.47526 18.9401 5.65613 18.8295 5.76666Z" fill="#F66649"/>
</svg>
